<?xml version="1.0" encoding="utf-8"?>
<!-- Generator: Adobe Illustrator 22.1.0, SVG Export Plug-In . SVG Version: 6.00 Build 0)  -->
<svg version="1.1" id="Capa_1" xmlns="http://www.w3.org/2000/svg" xmlns:xlink="http://www.w3.org/1999/xlink" x="0px" y="0px"
	 viewBox="0 0 455.7 455.7" style="enable-background:new 0 0 455.7 455.7;" xml:space="preserve">
<style type="text/css">
	.st0{fill:#B250AB;}
</style>
<g>
	<path class="st0" d="M176.6,179.5c0-25.6-28.9-25-28.9-25h-49v49.9h49C147.7,204.4,176.6,205.1,176.6,179.5z"/>
	<path class="st0" d="M325.5,204.9c-17.7,0-32.3,13.2-35.1,34h70.3C357.8,218.1,343.1,204.9,325.5,204.9z"/>
	<path class="st0" d="M150.7,238.2h-52v59.5h52c0,0,34.5,0.8,34.5-29.8S150.7,238.2,150.7,238.2z"/>
	<path class="st0" d="M0,0v455.7h455.7V0H0z M280.9,131.1h88.8v22.1h-88.8L280.9,131.1L280.9,131.1z M196.3,326.8
		c-12.2,6-27.6,7.9-42,7.9H50.7V117c0,0,99.9,0,114,0s57.8,8.4,58.1,50.4c0.2,29-16.3,42.3-30,48.6c0,0,36.2,10.8,39.1,42.8
		C234.7,290.8,229,310.7,196.3,326.8z M404.6,266.7h-114h-0.3c-1.1,25.2,17.3,40.2,38.2,40.2c14.8,0,27.8-7.9,35.3-21.2h37.4
		c-10.3,37.4-40.4,53-76,53c-46.6,0-79.8-37.4-79.8-83.5s35.7-83.5,79.8-83.5s79.8,37.4,79.8,83.5
		C405,259.2,404.9,263.1,404.6,266.7z"/>
</g>
</svg>
